<svg width="1600" height="1187" fill="none" xmlns="http://www.w3.org/2000/svg"><path d="m261.25 854.4-8.89 20.28a17.15 17.15 0 0 1-22.26 9.61 17.14 17.14 0 0 1-9.431-9.133 17.148 17.148 0 0 1-.209-13.127l10.2-23.57M261.04 757.349l13.63-32.31-7.46-2.95 5.6-14.15 46.82 18.53-5.6 14.15-7.46-2.96-14.3 33.98" fill="#3377B8"/><path d="m261.04 757.349 13.63-32.31-7.46-2.95 5.6-14.15 46.82 18.53-5.6 14.15-7.46-2.96-14.3 33.98" stroke="#272B36" stroke-width="2.23" stroke-miterlimit="10"/><path d="M1337.57 862.81c3.46 1.28 6.86 2.5 10.2 3.66-.02-.29-.02-.58 0-.87-.06-1.774.28-3.538 1.01-5.157a11.595 11.595 0 0 1 3.18-4.183c.93-.8 1.96-1.472 3.06-2a527.446 527.446 0 0 0-16.53-10.34l-13.83.6-11.95 4.29 9.74 17 15.12-3Z" fill="#FA3369" stroke="#272B36" stroke-width="2.23" stroke-miterlimit="10"/><path d="M1385.55 876.37c.66.53 1.31 1.07 1.94 1.6-.65-.13-1.3-.28-2-.43.05-.388.07-.779.06-1.17Z" stroke="#272B36" stroke-width="2.23" stroke-miterlimit="10"/><path d="M1355 854.29a347.464 347.464 0 0 1 30.58 22.08c.02.39.02.78 0 1.17a350.675 350.675 0 0 1-37.75-11.07c-.02-.29-.02-.58 0-.87a11.603 11.603 0 0 1 4.19-9.34c.9-.783 1.91-1.445 2.98-1.97Z" fill="#fff" stroke="#272B36" stroke-width="2.23" stroke-miterlimit="10"/><path d="M1369.34 876.18c.61 8.89 6.76 13.51 12.52 13.53 5.14 0 10.17-1.45 14.62 1.11 3.13 1.79 4.28 5.66 5.17 9.15 2.77-1.12 4.2-4.19 4.87-7.1.83-3.561.88-7.259.15-10.842a25.362 25.362 0 0 0-4.38-9.918 22.6 22.6 0 0 0-19-9 16.514 16.514 0 0 0-9.76 3.68 11.544 11.544 0 0 0-3.19 4.205 11.564 11.564 0 0 0-1 5.185Z" fill="#272B36"/><path d="M1306 814.16c35.86-6.68 67-30.67 94.79-54.3l10.9-16.05-75.84-42.07c-23.42 10.38-59.11 14.08-84.42 10.11l-20.55-3.22-32.49 17.4 42.77 79.91-8.12 21.3 72.96-13.08ZM322.61 710.59c-27.05-4.91-56.17-30.66-73.48-53.26-34.58-45.14-56.7-98.37-78.43-150.92l50.06-77.91a423.532 423.532 0 0 0 111.11 124c8.21 6.14 16.83 12.07 26.66 15a41.728 41.728 0 0 0 8.69 1.58l15.4 61.05-60.01 80.46Z" fill="#0E104F"/><path d="M610.47 504.119a233.426 233.426 0 0 1 58.14 86.71c.46 1.2.91 2.4 1.35 3.61l-1.35-3.61c49.25 132.7 39.1 265.61 33.75 391.46H314.28a967.161 967.161 0 0 1-.28-99.29l-.85-1.23a249.312 249.312 0 0 1-30.06-13.91l34.67-92.89c4.85-65.46 10.68-121.89 33.62-175.55 18.54-43.38 39.08-68.41 89.87-103.15l115.14-43.16 54.08 51.01ZM1250.26 823.04l-.19-8-.13-5-.27-11.06c0-17.13-6.85-57.74-6.85-57.74-2-10.92-4.26-21.35-6.78-31.29-29.63-118.52-89.83-169.33-119-187.68-10.48 27.27-34.28 49.31-62.53 57-28.49 7.78-60.47.72-83.4-17.76a203.154 203.154 0 0 0-70.18 111.78l-1.88 6.56-.81 2.84c-15.36 102.37-9 197.71 9.76 299.52h338.13c2-17.07 4.32-43.12 5.69-62.48.23-3.28.43-6.36.6-9.18l-2.16-87.51Zm-72.5 55.25c2.67 7.9 12.12 26.4 37.91 35.79a254.303 254.303 0 0 1-35.79 7 65.177 65.177 0 0 1-17.49-21.713 65.005 65.005 0 0 1-6.79-27.036 65.045 65.045 0 0 1 5.14-27.399 65.13 65.13 0 0 1 16.14-22.732 353.294 353.294 0 0 0 47-3.65 64.106 64.106 0 0 0-9.31 2.67c-9.46 3.54-17.27 10.47-24 18-4.77 5.38-9.15 11.24-11.79 17.93-2.64 6.69-3.43 14.35-1.02 21.14Z" fill="#0E104F"/><path d="M772.34 752.23a4.33 4.33 0 1 0 0-8.66 4.33 4.33 0 0 0 0 8.66Z" fill="#F7BF5C"/><path d="M1311 448.11a4.09 4.09 0 0 0 4.09-4.09 4.09 4.09 0 0 0-4.09-4.09 4.09 4.09 0 0 0-4.09 4.09 4.09 4.09 0 0 0 4.09 4.09Z" fill="#3EC6F2"/><path d="M1501.34 268.94c4.35 0 7.88-3.528 7.88-7.88s-3.53-7.88-7.88-7.88a7.881 7.881 0 0 0-7.88 7.88c0 4.352 3.53 7.88 7.88 7.88Z" fill="#F7BF5C"/><path d="M816.76 378.33a7.88 7.88 0 1 0 0-15.76 7.88 7.88 0 0 0 0 15.76Z" fill="#0E104F"/><path d="M1338 868.48c-.78 6.57-5.66 11.09-13.36 14.43 1.83 7.2-1.58 12-6.5 17.6-4.92 5.6-11.07 10.62-18.26 12.46-18.63 4.75-34.52 6.75-48 6.79-14.65 0-26.53-2.19-36.14-5.7-25.79-9.39-35.24-27.89-37.91-35.79-2.41-6.77-1.62-14.39 1-21.08 2.62-6.69 7-12.55 11.79-17.93 6.7-7.55 14.51-14.48 24-18a64.232 64.232 0 0 1 9.31-2.67c4.15-.855 8.35-1.45 12.58-1.78l2-.25 11.63-1.47 8.36-1.06 19.31-2.44c5.53-.31 11.87-1.95 20.26-.08 2.75.631 5.43 1.525 8 2.67 7.74 3.39 15.28 9 19.37 15.51l.09.68 3.24 24.06c6.49 1.13 9.99 7.48 9.23 14.05Z" fill="#FCA" stroke="#272B36" stroke-width="2.23" stroke-miterlimit="10"/><path d="M1294.34 887.48c8.74-.65 22.51-.5 30.27-4.57" stroke="#272B36" stroke-width="2.23" stroke-miterlimit="10"/><path d="M597.84 493.2a91.52 91.52 0 0 0 11.31-3.54 83.583 83.583 0 0 0 10.4-4.87c23.75-13.2 40-36.6 46.93-62s7.68-63 .87-88.83l-15.17-22.67-100.86-29-50.69 5.86-2.12 42.14-8.71 63.21-9.2 41.48 7 28.1-23.78 34.21 19 41.45 53.5-4 56.17-33.45 5.35-8.09Z" fill="#8C6144" stroke="#272B36" stroke-width="2.23" stroke-miterlimit="10"/><path d="m638.67 407.44 5.56-3.14.88-.37-4.32-10.43" stroke="#272B36" stroke-width="2.23" stroke-miterlimit="10"/><path d="M659.69 390.83c2.56 0 2.56-4 0-4s-2.56 4 0 4ZM615.91 388.939c2.55 0 2.56-4 0-4s-2.56 4 0 4Z" fill="#272B36"/><path d="M647.84 421.04a21.993 21.993 0 0 1-20.68-1.23s-1.16 13.48 8.38 15.06c9.54 1.58 12.3-13.83 12.3-13.83Z" fill="#fff" stroke="#272B36" stroke-width="2.23" stroke-miterlimit="10"/><path d="M1490.21 705.55a119.93 119.93 0 0 0 20.31-66.93c0-3.12-.4-6.2-.35-9.26.35-19.9-11.37-42.67-11.37-42.67a120.638 120.638 0 0 0-37.43-45.239 120.666 120.666 0 0 0-54.36-22.204 120.652 120.652 0 0 0-58.41 6.095 120.655 120.655 0 0 0-48.6 32.948 115.95 115.95 0 0 0-5 6 65.888 65.888 0 0 0-11.95 27.994 65.916 65.916 0 0 0 1.89 30.379 66.06 66.06 0 0 0 15.34 26.29 66.007 66.007 0 0 0 25.52 16.597 55.02 55.02 0 0 0 8.3 2.14c.89.171 1.77.416 2.63.73a16.5 16.5 0 0 1 6.54 4.447 16.498 16.498 0 0 1 3.71 6.979c.66 2.593.67 5.307.05 7.907a16.48 16.48 0 0 1-3.65 7.017c-.77.878-1.64 1.669-2.58 2.36a25.596 25.596 0 0 0-4.88 4.58 32.838 32.838 0 0 0-7.05 20.36v1a32.68 32.68 0 0 0 22.4 29.74c2 .667 4.06 1.3 6.17 1.9a120.364 120.364 0 0 0 32.47 4.44c9.6-.049 19.18-1.091 28.57-3.11l35.52-15.38 27.53-26.49 8.73-8.62" fill="#3377B8"/><path d="M1490.21 705.55a119.93 119.93 0 0 0 20.31-66.93c0-3.12-.4-6.2-.35-9.26.35-19.9-11.37-42.67-11.37-42.67a120.638 120.638 0 0 0-37.43-45.239 120.666 120.666 0 0 0-54.36-22.204 120.652 120.652 0 0 0-58.41 6.095 120.655 120.655 0 0 0-48.6 32.948 115.95 115.95 0 0 0-5 6 65.888 65.888 0 0 0-11.95 27.994 65.916 65.916 0 0 0 1.89 30.379 66.06 66.06 0 0 0 15.34 26.29 66.007 66.007 0 0 0 25.52 16.597 55.02 55.02 0 0 0 8.3 2.14c.89.171 1.77.416 2.63.73a16.5 16.5 0 0 1 6.54 4.447 16.498 16.498 0 0 1 3.71 6.979c.66 2.593.67 5.307.05 7.907a16.48 16.48 0 0 1-3.65 7.017c-.77.878-1.64 1.669-2.58 2.36a25.596 25.596 0 0 0-4.88 4.58 32.838 32.838 0 0 0-7.05 20.36v1a32.68 32.68 0 0 0 22.4 29.74c2 .667 4.06 1.3 6.17 1.9a120.364 120.364 0 0 0 32.47 4.44c9.6-.049 19.18-1.091 28.57-3.11l35.52-15.38 27.53-26.49 8.73-8.62" stroke="#272B36" stroke-width="2.23" stroke-miterlimit="10"/><path d="M1328.65 620.01c10.71 0 19.39-8.682 19.39-19.39 0-10.709-8.68-19.391-19.39-19.391s-19.39 8.682-19.39 19.391c0 10.708 8.68 19.39 19.39 19.39Z" fill="#fff" stroke="#272B36" stroke-width="2.23" stroke-miterlimit="10"/><path d="M1385.04 586.69c10.71 0 19.39-8.681 19.39-19.39 0-10.709-8.68-19.39-19.39-19.39s-19.39 8.681-19.39 19.39c0 10.709 8.68 19.39 19.39 19.39Z" fill="#FA3369" stroke="#272B36" stroke-width="2.23" stroke-miterlimit="10"/><path d="M1445.75 609.46c10.71 0 19.39-8.681 19.39-19.39 0-10.709-8.68-19.39-19.39-19.39s-19.39 8.681-19.39 19.39c0 10.709 8.68 19.39 19.39 19.39Z" fill="#F7BF5C" stroke="#272B36" stroke-width="2.23" stroke-miterlimit="10"/><path d="M136.7 251.87a5.49 5.49 0 1 0 0-10.98 5.49 5.49 0 0 0 0 10.98Z" fill="#FA3369"/><path d="M96.17 740.11a2.65 2.65 0 1 0 0-5.3 2.65 2.65 0 0 0 0 5.3Z" fill="#3EC6F2"/><path d="M350.11 391.29c5.882 0 10.65-4.768 10.65-10.65 0-5.882-4.768-10.65-10.65-10.65-5.882 0-10.65 4.768-10.65 10.65 0 5.882 4.768 10.65 10.65 10.65Z" fill="#3377B8"/><path d="M1146.21 462.29c.87 6.25 10.16 9.1 16.44 8.62 6.28-.48 11.76-5.37 13.84-11.33.28-.609.44-1.269.47-1.941a5.091 5.091 0 0 0-.33-1.969c-1.88-3.75-10.47-2.42-9.47-6.5 8.12-2.73 12.5-13.31 8.67-21-1.21-2.43-3.09-4.59-3.58-7.26-2-10.92 18.83-14.34 18.67-25.44-.1-6.43-7.73-11.38-6.59-17.71.42-2.38 2.06-4.35 3-6.58 3-7.29-1.79-15.19-5.42-22.21-3.63-7.02-5.4-17.19 1.22-21.49-3.42-.35-7-.75-9.91-2.54s-5-5.41-4-8.69c1.27-3.92 6-5.27 9.31-7.74 6.1-4.55 7.07-14.55 2-20.19L1154 268.94l-8-12-9.22-11.65a4.755 4.755 0 0 0-2.16-1.81c-2.9-.9-4.95 3.71-8 3.62-3.05-.09-3.81-4.29-6.14-6.21-3.68-3.05-9.07.71-11.87 4.59-2.8 3.88-6.32 8.69-11 7.83-1.95-.36-3.58-1.69-5.47-2.26-6.23-1.87-11.83 5.3-12.11 11.81-.09 2 .09 4.16-.92 5.91-1.9 3.3-6.56 3.19-10.2 4.32-2.74.92-5.11 2.702-6.75 5.079a13.331 13.331 0 0 0-2.37 8.111c.17 2.93 1.33 5.75 1.34 8.68a11.487 11.487 0 0 1-1.74 5.924 11.421 11.421 0 0 1-4.58 4.146l91.4 157.26Z" fill="#F7BF5C" stroke="#272B36" stroke-width="2.23" stroke-miterlimit="10"/><path d="M1108.72 283.09a46.586 46.586 0 0 1 11.92-15.28c2-1.69 4.6-3.29 7.11-2.52 1.25.39 2.28 1.33 3.53 1.72 2.54.78 5.2-.91 7-2.89 1.8-1.98 3.21-4.38 5.51-5.73a8.098 8.098 0 0 1 10.78 2.95c.69 1.27 1.36 3 2.8 3 1.24 0 2.08-1.21 3.2-1.72 2-.91 4.3.78 5.18 2.78.88 2 .89 4.26 1.57 6.34 1.28 3.91 4.7 6.64 7.47 9.68 2.77 3.04 5.08 7.35 3.48 11.14" fill="#F7BF5C"/><path d="M1108.72 283.09a46.586 46.586 0 0 1 11.92-15.28c2-1.69 4.6-3.29 7.11-2.52 1.25.39 2.28 1.33 3.53 1.72 2.54.78 5.2-.91 7-2.89 1.8-1.98 3.21-4.38 5.51-5.73a8.098 8.098 0 0 1 10.78 2.95c.69 1.27 1.36 3 2.8 3 1.24 0 2.08-1.21 3.2-1.72 2-.91 4.3.78 5.18 2.78.88 2 .89 4.26 1.57 6.34 1.28 3.91 4.7 6.64 7.47 9.68 2.77 3.04 5.08 7.35 3.48 11.14" stroke="#272B36" stroke-width="2.23" stroke-miterlimit="10"/><path d="M143.34 434.09c-2.39-1.17-24.68-3.65-30.9 7.1-6.22 10.75 10.86 16.29 10.86 16.29l21.57-5.13 6.52-10.33-8.05-7.93Z" fill="#8C6144" stroke="#272B36" stroke-width="2.23" stroke-miterlimit="10"/><path d="M147.05 438.91c-2.18 0-27.71-17.34-38.81-17.86-11.1-.52-15-10.91-9.76-16.67 5.24-5.76 15.68-10.86 55.94 3.67s-7.37 30.86-7.37 30.86Z" fill="#8C6144" stroke="#272B36" stroke-width="2.23" stroke-miterlimit="10"/><path d="M162.75 388.17c-1.51-.21-43.06-29.15-52.68-20.93-9.62 8.22-3.64 22.65 34.52 44.21l18.16-23.28Z" fill="#8C6144" stroke="#272B36" stroke-width="2.23" stroke-miterlimit="10"/><path d="M222.56 493.21c9.87-15.34 11-34.61 4.08-51.47-5.3-12.87-15.54-28.53-35.27-42.18-42.57-29.47-51.4 0-51.4 0s-6.85 16 20.21 24.27c27.06 8.27.84 12.81.84 12.81l1.73 62.76s23.9 18.48 44.45 8.24c6.68-3.35 11.67-8.7 15.36-14.43Z" fill="#8C6144" stroke="#272B36" stroke-width="2.23" stroke-miterlimit="10"/><path d="m61.64 498.02 78 55.14a13.803 13.803 0 0 0 13.735 1.26 13.806 13.806 0 0 0 7.965-11.26l8.45-91.78 40.49-57.28 1.16.81a3.91 3.91 0 0 0 5.45-.93 3.92 3.92 0 0 0-.94-5.45l-24.55-17.35a3.91 3.91 0 0 0-5.45.93 3.92 3.92 0 0 0 .94 5.45l1.16.82-40.5 57.28-83.72 38.57a13.796 13.796 0 0 0-7.966 11.263 13.793 13.793 0 0 0 5.776 12.527Z" fill="#3EC6F2"/><path d="M123.88 520.17c6.318 0 11.44-5.122 11.44-11.44s-5.122-11.44-11.44-11.44-11.44 5.122-11.44 11.44 5.122 11.44 11.44 11.44ZM149.35 493.47a6.01 6.01 0 1 0 0-12.02 6.01 6.01 0 0 0 0 12.02ZM147.37 538.74a4.03 4.03 0 1 0 0-8.06 4.03 4.03 0 0 0 0 8.06Z" fill="#fff"/><path d="M204.84 448.95s-8.6-25.54-19.71-23.47c-11.11 2.07-19.58 14.85-8.32 28.3 11.26 13.45 8.32 22.64 8.32 22.64" fill="#8C6144"/><path d="M204.84 448.95s-8.6-25.54-19.71-23.47c-11.11 2.07-19.58 14.85-8.32 28.3 11.26 13.45 8.32 22.64 8.32 22.64" stroke="#272B36" stroke-width="2.23" stroke-miterlimit="10"/><path d="M156.72 422.66s18.61-4 12.27-17.35c-6.34-13.35-3.87-11.46-3.87-11.46" fill="#8C6144"/><path d="M156.72 422.66s18.61-4 12.27-17.35c-6.34-13.35-3.87-11.46-3.87-11.46" stroke="#272B36" stroke-width="2.23" stroke-miterlimit="10"/><path d="m204.84 380.679-13.45-9.51a3.914 3.914 0 0 0-5.45.93 3.92 3.92 0 0 0 .94 5.45l1.16.82-19.04 26.92" fill="#3EC6F2"/><path d="m204.84 380.679-13.45-9.51a3.914 3.914 0 0 0-5.45.93 3.92 3.92 0 0 0 .94 5.45l1.16.82-19.04 26.92M166.57 486.22l3.21-34.85 2.97-4.2" stroke="#272B36" stroke-width="2.23" stroke-miterlimit="10"/><path d="M214.77 799.15c-13.42-.06-25-9.77-37-15.78-4.27-2.14-8.61-4.46-11.65-8.13-3.04-3.67-7.8-9.48-3.74-16.89 3.78-6.91 17.15-6.46 24.82-4.68a156.84 156.84 0 0 1 48 20s-19.9-9.42-12.49-22.69c5.38-9.62 17.18-9 19.91-8.58 85.13 12.16 87.81 69.08 87.81 69.08 4.16 27.41-10.78 46.83-22.67 52.1-18 8-39.54 4-57.26-4.57-17-8.31-32.5-21.72-51.36-22.72-6.31-.33-12.63.8-18.93.35-6.3-.45-13-2.9-16.14-8.39-3.79-6.61-.88-15.49 4.8-20.57s13.43-7.12 20.94-8.39c7.95-1.32 16.91-.18 24.96-.14Z" fill="#8C6144" stroke="#272B36" stroke-width="2.23" stroke-miterlimit="10"/><path d="M315.06 776.68c57.54 16.61 184.46 33.08 222.62-39.22M1004.33 732.06c18.75 74.63 106.61 91 172.57 90.16" stroke="#fff" stroke-width="2.23" stroke-miterlimit="10"/><path d="m1225.2 818.359-1.34.21" stroke="#272B36" stroke-width="2.23" stroke-miterlimit="10"/><path d="M671 594.439a232.669 232.669 0 0 1 13.9 79.49c0 128.75-104.38 233.13-233.13 233.13-41.66 0-93.84-8.3-137.58-25.29" stroke="#fff" stroke-width="2.23" stroke-miterlimit="10"/><path d="M66.45 982.29h1500.62" stroke="#272B36" stroke-width="2.23" stroke-miterlimit="10"/><path d="M1178.88 921.1c-42.89 5.54-92.94 3.42-127.05-4.61C945.06 891.36 877.79 786.63 898 679.93c.56-2.953 1.187-5.903 1.88-8.85" stroke="#fff" stroke-width="2.23" stroke-miterlimit="10"/><path d="M1307.68 826.59a810.997 810.997 0 0 0-21.88-11.14c-32.16-15.72-62.86-27.95-88.22-35.68-6.17-1.87-9.47 4.87-4.2 8.59 20 14.1 45.81 29.43 74.94 44.07l13.74 6.12 25.62-4.87v-7.09Z" fill="#FA3369" stroke="#272B36" stroke-width="2.23" stroke-miterlimit="10"/><path d="M1388.52 729.11a81.882 81.882 0 0 1 24.7-8.38c3.35-.56 6.88-1 9.68-2.9 4.46-3.06 5.78-9.54 3.75-14.56-2.03-5.02-6.84-8.57-12-10.14-5.16-1.57-10.74-1.38-16.11-.64a115.28 115.28 0 0 0-17 4.13l-5.66 1.94a19.385 19.385 0 0 0-12.84 23.096 19.437 19.437 0 0 0 4.53 8.452 19.386 19.386 0 0 0 32.15-5.548" fill="#FCA"/><path d="M1388.52 729.11a81.882 81.882 0 0 1 24.7-8.38c3.35-.56 6.88-1 9.68-2.9 4.46-3.06 5.78-9.54 3.75-14.56-2.03-5.02-6.84-8.57-12-10.14-5.16-1.57-10.74-1.38-16.11-.64a115.28 115.28 0 0 0-17 4.13l-5.66 1.94a19.385 19.385 0 0 0-12.84 23.096 19.437 19.437 0 0 0 4.53 8.452 19.386 19.386 0 0 0 32.15-5.548" stroke="#272B36" stroke-width="2.23" stroke-miterlimit="10"/><path d="M1375.9 698.57a97.76 97.76 0 0 1 5.66-1.95" stroke="#272B36" stroke-width="2.23" stroke-miterlimit="10"/><path d="M1424.47 761.22c-5.78-5-7.32-9.21-4.85-14.26 2.47-5.05 8.66-7.7 14.19-6.71 5.53.99 10.19 5.17 12.52 10.28a11.32 11.32 0 0 1 1.2 5.83c-.54 4.85-5.7 8.09-10.58 8.22-4.88.13-8.61.01-12.48-3.36ZM1443.55 745.58a9.006 9.006 0 0 1-1.29-2.14c-1.56-4.08-2.36-9 .09-12.58 2.2-3.25 6.39-4.48 10.3-4.76 6.9-.5 14.31 1.57 18.77 6.85 4.46 5.28 4.89 14.07-.16 18.79-3.21 3-7.93 3.92-12.29 3.44-4.36-.48-10.63-3.3-15.42-9.6Z" fill="#FCA" stroke="#272B36" stroke-width="2.23" stroke-miterlimit="10"/><path d="M1467.87 729.46c-4.34-2-6.2-7.63-6.25-12.43-.03-2.405.55-4.778 1.68-6.899a14.18 14.18 0 0 1 4.8-5.231c4.65-2.88 10.62-2.57 15.93-1.25 5.84 1.45 11.69 4.24 15 9.25 3.31 5.01 3.22 12.6-1.46 16.39a18.236 18.236 0 0 1-11.89 4.4 40.621 40.621 0 0 1-17.81-4.23Z" fill="#FCA" stroke="#272B36" stroke-width="2.23" stroke-miterlimit="10"/><path d="M1117 523.29c-10.48 27.27-32.64 56.81-62.22 62.69-29 5.76-60.78-4.94-83.71-23.42A207.853 207.853 0 0 1 989 549.58l5.28-2.74 90.91-38.21c2.81 1.43 26.91 11.51 31.81 14.66Z" fill="#3377B8" stroke="#272B36" stroke-width="2.23" stroke-miterlimit="10"/><path d="M539.23 509.76a412.262 412.262 0 0 0-72.63 65.23l-.16-1.33a344 344 0 0 1 11.27-86.44c5.44 12.07 20.46 29.07 61.52 22.54Z" fill="#FA3369" stroke="#272B36" stroke-width="2.23" stroke-miterlimit="10"/><path d="M1092.74 513.36c-2.88 26.08-23.84 39.85-32.69 43.2a70.34 70.34 0 0 1-32.57 4.54c-11-1.26-21.74-5.76-29.74-13.4v-1.61c-10.53-.84-20.49-4.51-31.13-11.71-22.51-15.22-23.2-58.53-17.88-94.83l-5.54-13.26 15.43-45.2 21.65-15.16 40.06 4.5 35.73 12.86 34.94 49.25 20 35.15 1.35 21.69-9.2 16-10.41 7.98Z" fill="#FCA" stroke="#272B36" stroke-width="2.23" stroke-miterlimit="10"/><path d="M1060.36 462.63c2-2.71 3.5-5.68 3.38-9-.17-4.74-6.07-9.07-9.73-6-3.48-4.58 1.64-11.11.53-16.75-.77-3.92-4.55-6.68-8.46-7.49-3.91-.81-8-.08-11.88.65 2.24-8.94 4.2-19.34-1.49-26.59" stroke="#272B36" stroke-width="2.23" stroke-miterlimit="10"/><path d="M1085.17 507.63a5.028 5.028 0 0 1-8.03-4.672 4.995 4.995 0 0 1 1.93-3.328l-.45-.76a15.915 15.915 0 0 0 14.6-.33 18.287 18.287 0 0 0 8.83-11.82c1.27-5.37-.12-11.68-4.57-15-4.45-3.32-13-1.93-15.12 3.17 0 3-.19 6.3-2.12 8.62-1.93 2.32-6.37 2.61-7.57-.17-.79-1.85.2-3.93.79-5.86.59-1.93.44-4.6-1.46-5.28a7.812 7.812 0 0 0-2.22-.19c-5-.26-7.27-6.14-8.4-11l-1 1.57c-.88 1.2-1.85 2.36-2.81 3.46-2.19 2.55-6.07 5.21-8.45 2.85-1.73-1.71-.91-4.56-.55-7 .36-2.44-.87-5.74-3.25-5.27-.86.323-1.67.767-2.4 1.32-2.74 1.44-6.24-.78-7.33-3.68-1.09-2.9-.5-6.11 0-9.17.5-3.06.91-6.34-.51-9.1-4.54-1.2-9.26 3.08-13.76 1.72-4.84-1.45-5.62-7.9-5.3-12.95.32-5.05.07-11.38-4.54-13.45-3.84-1.72-8.23.81-12.44.66-5.86-.23-15.2-6.39-16.2-12.16-1-5.77.23-19.61 1.86-25.24-2.12 7.66-14.3 13.89-21.21 17.83-3.17 1.81-7 11-7 11a298.766 298.766 0 0 0-8.21 37.74c-6.77-.95-12.24-6.82-13.8-13.48-1.56-6.66.37-13.8 4.13-19.51 3.21-4.88 7.91-9.47 7.9-15.31 0-3.72-2-7.13-2.67-10.78-1.2-6.45 1.78-13 5.94-18.1 4.16-5.1 9.48-9 14.11-13.68 2.73-2.73 5.3-5.75 8.74-7.49 5.95-3 13.09-1.6 19.6-.1l-6-1.36c-.42-16.6 18.78-35.36 34.93-31.53 3.41.81 6.78 2.28 10.26 1.9 4.38-.49 7.84-3.77 11.57-6.12 3.73-2.35 9.1-3.62 12.21-.5.86.86 1.44 2 2.36 2.76 2.85 2.44 7.21.72 10.47-1.14 3.63-2.07 7.33-4.26 11.46-4.86 4.13-.6 8.86.79 10.91 4.42 3 5.23-.18 13.45 4.79 16.81 8-6.82 21.9-4.55 27.28 4.45 3.13 5.23 3.54 11.89 7.32 16.66 5.14 6.49 14.52 7.34 21.82 11.24a27.613 27.613 0 0 1 13 15.35c1.3 3.83 1.71 8.11.27 11.89-2.23 5.8-8.38 9.45-10.43 15.31-4 11.39 9.41 23.42 5.66 34.88-1.88 5.77-7.64 9.46-10.2 15-2.1 4.51-1.84 9.8-3.63 14.44-4.16 10.83-18.22 15.76-21.3 26.94-1.15 4.16-.62 8.84-2.83 12.54a15.68 15.68 0 0 1-5.36 5 43.164 43.164 0 0 1-24 6.59c-3-.08-8.93-3-7.57-5.73" fill="#F7BF5C"/><path d="M1085.17 507.63a5.028 5.028 0 0 1-8.03-4.672 4.995 4.995 0 0 1 1.93-3.328l-.45-.76a15.915 15.915 0 0 0 14.6-.33 18.287 18.287 0 0 0 8.83-11.82c1.27-5.37-.12-11.68-4.57-15-4.45-3.32-13-1.93-15.12 3.17 0 3-.19 6.3-2.12 8.62-1.93 2.32-6.37 2.61-7.57-.17-.79-1.85.2-3.93.79-5.86.59-1.93.44-4.6-1.46-5.28a7.812 7.812 0 0 0-2.22-.19c-5-.26-7.27-6.14-8.4-11l-1 1.57c-.88 1.2-1.85 2.36-2.81 3.46-2.19 2.55-6.07 5.21-8.45 2.85-1.73-1.71-.91-4.56-.55-7 .36-2.44-.87-5.74-3.25-5.27-.86.323-1.67.767-2.4 1.32-2.74 1.44-6.24-.78-7.33-3.68-1.09-2.9-.5-6.11 0-9.17.5-3.06.91-6.34-.51-9.1-4.54-1.2-9.26 3.08-13.76 1.72-4.84-1.45-5.62-7.9-5.3-12.95.32-5.05.07-11.38-4.54-13.45-3.84-1.72-8.23.81-12.44.66-5.86-.23-15.2-6.39-16.2-12.16-1-5.77.23-19.61 1.86-25.24-2.12 7.66-14.3 13.89-21.21 17.83-3.17 1.81-7 11-7 11a298.766 298.766 0 0 0-8.21 37.74c-6.77-.95-12.24-6.82-13.8-13.48-1.56-6.66.37-13.8 4.13-19.51 3.21-4.88 7.91-9.47 7.9-15.31 0-3.72-2-7.13-2.67-10.78-1.2-6.45 1.78-13 5.94-18.1 4.16-5.1 9.48-9 14.11-13.68 2.73-2.73 5.3-5.75 8.74-7.49 5.95-3 13.09-1.6 19.6-.1l-6-1.36c-.42-16.6 18.78-35.36 34.93-31.53 3.41.81 6.78 2.28 10.26 1.9 4.38-.49 7.84-3.77 11.57-6.12 3.73-2.35 9.1-3.62 12.21-.5.86.86 1.44 2 2.36 2.76 2.85 2.44 7.21.72 10.47-1.14 3.63-2.07 7.33-4.26 11.46-4.86 4.13-.6 8.86.79 10.91 4.42 3 5.23-.18 13.45 4.79 16.81 8-6.82 21.9-4.55 27.28 4.45 3.13 5.23 3.54 11.89 7.32 16.66 5.14 6.49 14.52 7.34 21.82 11.24a27.613 27.613 0 0 1 13 15.35c1.3 3.83 1.71 8.11.27 11.89-2.23 5.8-8.38 9.45-10.43 15.31-4 11.39 9.41 23.42 5.66 34.88-1.88 5.77-7.64 9.46-10.2 15-2.1 4.51-1.84 9.8-3.63 14.44-4.16 10.83-18.22 15.76-21.3 26.94-1.15 4.16-.62 8.84-2.83 12.54a15.68 15.68 0 0 1-5.36 5 43.164 43.164 0 0 1-24 6.59c-3-.08-8.93-3-7.57-5.73" stroke="#272B36" stroke-width="2.23" stroke-miterlimit="10"/><path d="M957.62 356.01c6.28-6.89 16.92-7.63 26.11-6 9.19 1.63 18.18 5.06 27.51 4.75 19.36-.65 34.49-16.91 53-22.66 12.08-3.75 26.54-3.53 35-13 5.29-5.9 6.14-7.85 6.18-15.77 0-5.43-.61-11.09-3.5-15.69-4.9-7.82-14.9-10.6-24.08-11.58-39.58-4.23-78.7 13.43-110.24 37.7-8 6.17-16 13.24-19.31 22.79-3.31 9.55.61 15.63 10 19.36" fill="#3377B8"/><path d="M957.62 356.01c6.28-6.89 16.92-7.63 26.11-6 9.19 1.63 18.18 5.06 27.51 4.75 19.36-.65 34.49-16.91 53-22.66 12.08-3.75 26.54-3.53 35-13 5.29-5.9 6.14-7.85 6.18-15.77 0-5.43-.61-11.09-3.5-15.69-4.9-7.82-14.9-10.6-24.08-11.58-39.58-4.23-78.7 13.43-110.24 37.7-8 6.17-16 13.24-19.31 22.79-3.31 9.55.61 15.63 10 19.36" stroke="#272B36" stroke-width="2.23" stroke-miterlimit="10"/><path d="M1014.45 296.84a38.173 38.173 0 0 0-2.24-24.35M997.74 546.09c11.34.92 23.35-1.44 37.58-6.18" stroke="#272B36" stroke-width="2.23" stroke-miterlimit="10"/><path d="M1001.74 475.57c4.35 0 7.88-3.528 7.88-7.88s-3.53-7.88-7.88-7.88a7.88 7.88 0 0 0 0 15.76Z" fill="#E2A98A"/><path d="M957 464.76c3.36 1.83 11.57 3.14 15.34 2.44 0 0-.14 11.47-9.51 10.84-6.83-.47-5.83-13.28-5.83-13.28Z" fill="#fff" stroke="#272B36" stroke-width="2.23" stroke-miterlimit="10"/><path d="M987.37 446.41c2.56 0 2.56-4 0-4s-2.56 4 0 4ZM956.28 440.01c2.55 0 2.56-4 0-4s-2.56 4 0 4Z" fill="#272B36"/><path d="M968.05 455.58a74.6 74.6 0 0 1-6.91-3.63c1.46-4 1.92-4.87 2.91-7.93" stroke="#272B36" stroke-width="2.23" stroke-miterlimit="10"/><path d="M592.49 416.44c5.285 0 9.57-4.285 9.57-9.57a9.57 9.57 0 0 0-9.57-9.57 9.57 9.57 0 0 0-9.57 9.57c0 5.285 4.285 9.57 9.57 9.57Z" fill="#AD7955"/><path d="M1215.51 914.92a259.078 259.078 0 0 1-36.5 7.18 66.344 66.344 0 0 1-19.46-77.64 66.304 66.304 0 0 1 16.45-23.17 362.19 362.19 0 0 0 47.89-3.72 65.57 65.57 0 0 0-9.49 2.72c-9.65 3.61-17.62 10.68-24.45 18.38-4.86 5.48-9.33 11.46-12 18.28s-3.51 14.6-1.05 21.5c2.67 8.03 12.31 26.89 38.61 36.47Z" fill="#3377B8"/><path d="M1261.41 834.889c20.37-5.5 42-11 62.25-5.12 4.21 1.22 8.43 3 11.35 6.29s4.24 8.29 2.18 12.16c-1.92 3.61-6.07 5.32-9.9 6.75-3 1.11-16.8 7.74-40 5.83" fill="#FCA"/><path d="M1261.41 834.889c20.37-5.5 42-11 62.25-5.12 4.21 1.22 8.43 3 11.35 6.29s4.24 8.29 2.18 12.16c-1.92 3.61-6.07 5.32-9.9 6.75-3 1.11-16.8 7.74-40 5.83" stroke="#272B36" stroke-width="2.23" stroke-miterlimit="10"/><path d="m610.47 504.12-3.36 2.71c-22.61 17.72-44.26 38.09-57.61 63.52-4.52 8.61-9 18.17-17.71 22.54-4.68 2.35-10 2.87-15.22 3.54a225.125 225.125 0 0 0-38.5 8.43c.11 12.18-.13 27.13 0 39.31 0 2.87 0 5.81-.95 8.5-1.36 3.68-4.42 6.43-7.35 9.06a509.378 509.378 0 0 0-94.55 113.84l.28-.47c8.67-34 17.81-68 30.66-100.47.22-.57.45-1.13.67-1.69 4.54-11.35 9.54-22.5 15.14-33.4A311.113 311.113 0 0 1 456 587.62a303.308 303.308 0 0 1 10.41-12.45l.16-.18a412.262 412.262 0 0 1 72.63-65.23c7.82-5.49 15.72-10.59 23.63-15.26a88.225 88.225 0 0 0 35-1.3l.43.22c4.2 3.434 8.27 7 12.21 10.7Z" fill="#0E104F"/><path d="M477.71 487.22a344.005 344.005 0 0 0-11.27 86.44l.16 1.33-.16.18A394.154 394.154 0 0 0 456 587.62a311.03 311.03 0 0 0-34 51.92c-5.6 10.9-10.6 22-15.14 33.4-.22.56-.45 1.12-.67 1.69v-5c.08-17.333.163-34.666.25-52 0-3.94.05-7.94 1.23-11.69 1.29-4.09 3.88-7.64 6.51-11a262.23 262.23 0 0 1 15-17.66c1-11.25 2-27.36 3-38.61 1.25-14.26 3.66-29 10.29-43.14 11.77-8 25.15-16.55 40.48-26a250.021 250.021 0 0 0-5.24 17.69Z" fill="#0E104F"/><path d="M667.35 333.94c-30.71-16.49-71.24-23-104.48-12.53-27.7-13.52-27.87-11.83-40.12-17.12a264.312 264.312 0 0 0 30.15 22.92c6.36 8 4.37 24.7 3.2 34.88-2.05 17.81-16.35 34.45-28.17 47.93-2.95 3.37-6.43 6.7-7.28 11.1-.55 2.89.11 5.95-.78 8.76-1.87 5.91-11.83 5.38-15.14.13-5.28-5-15.16-1.94-18 4.77-2.84 6.71.37 14.91 6.12 19.41 4.42 3.46 15.38 2.32 17.64-2.83a20.944 20.944 0 0 1-6.49 15.31 17.747 17.747 0 0 1-15.91 4.26c-5.54-1.38-11.05-14.55-12.1-20.17-16.86-82.57-1-170.31 31.46-248.6 1.68-4.07 3.76-8.48 7.81-10.23s10 1.65 8.75 5.87a12.6 12.6 0 0 1 13.18-8.51 15.994 15.994 0 0 1 4.21 10.31 11.72 11.72 0 0 1 22.65 2.19 9.31 9.31 0 0 1 18.42-1.82 11.23 11.23 0 0 1 21.91-.86 9.999 9.999 0 0 1 16.735-5.353 10.005 10.005 0 0 1 3.045 6.303 8.91 8.91 0 0 1 4.418-5.187A8.902 8.902 0 0 1 641.1 205.54c3.36-3.46 7.88-6.25 12.69-5.88 4.81.37 9.34 5 8.22 9.68 2.31-5.43 11-5 14.79-.49 3.79 4.51 4.14 10.92 4.15 16.82a432.698 432.698 0 0 1-13.6 108.27Z" fill="#EF8B63"/><path d="M625.38 481.29s-13.12 8.86-26.71 11.74c0 0-22.33 4.27-35.81 1.51a76.47 76.47 0 0 1-23.08-7.74M527 511.03s9.76-.89 11-1.08a4.614 4.614 0 0 0 1.8-.57" stroke="#272B36" stroke-width="2.23" stroke-miterlimit="10"/><path d="M624.84 293.75a8.221 8.221 0 0 1-.81-8.58c1-1.94 2.79-3.48 3.33-5.59.74-2.85-1-5.91-.26-8.77M642.29 288.14a6.248 6.248 0 0 1-1.7-6.54c1.17-3.37 5.22-5.78 4.76-9.31-.17-1.37-1-2.59-1.15-4-.22-2.92 2.83-4.83 4.81-7a4.618 4.618 0 0 0 1.48-4.06c-.5-1.92-2.84-2.93-3.29-4.87-.78-3.36 4.5-5.25 4.95-8.67.23-1.73-.84-3.32-1.65-4.87-.81-1.55-1.34-3.59-.19-4.91" stroke="#fff" stroke-width="2.23" stroke-miterlimit="10"/><path d="M564.05 201.78a9.31 9.31 0 0 1 18.42-1.82 11.23 11.23 0 0 1 21.91-.86 9.996 9.996 0 0 1 10.302-8.114 9.997 9.997 0 0 1 9.478 9.064 8.904 8.904 0 0 1 16.94 5.48c3.36-3.46 7.88-6.25 12.69-5.88 4.81.37 9.34 5 8.22 9.68 2.31-5.43 11-5 14.79-.49 3.79 4.51 4.14 10.92 4.15 16.82a432.724 432.724 0 0 1-13.6 108.28c-30.71-16.49-71.24-23-104.48-12.53-27.7-13.52-27.87-11.83-40.12-17.12a264.312 264.312 0 0 0 30.15 22.92c6.36 8 4.37 24.7 3.2 34.88-2.05 17.81-16.35 34.45-28.17 47.93-2.95 3.37-6.43 6.7-7.28 11.1-.55 2.89.11 5.95-.78 8.76-1.87 5.91-11.83 5.38-15.14.13-5.28-5-15.16-1.94-18 4.77-2.84 6.71.37 14.91 6.12 19.41 4.42 3.46 15.38 2.32 17.64-2.83a20.944 20.944 0 0 1-6.49 15.31 17.736 17.736 0 0 1-15.91 4.26c-5.54-1.38-11.05-14.55-12.1-20.17-9.64-47.21-8.59-96.11.15-144M188 425.549l22.24-31.46 1.16.81a3.91 3.91 0 0 0 5.45-.93 3.918 3.918 0 0 0-.94-5.45l-24.55-17.35a3.914 3.914 0 0 0-5.45.93 3.92 3.92 0 0 0 .94 5.45l1.16.82-19.01 26.92M106 529.39l33.62 23.77a13.802 13.802 0 0 0 21.7-10l8.45-91.78 3-4.2M156.72 422.66l-9.18 12.99-59.52 27.43" stroke="#272B36" stroke-width="2.23" stroke-miterlimit="10"/><path d="M482 469.29a302.201 302.201 0 0 0-15.5 113.33 146.244 146.244 0 0 1 63.5-69.68" stroke="#fff" stroke-width="2.23" stroke-miterlimit="10" stroke-linecap="round"/><path d="M456.51 649.979c2.55 0 2.56-4 0-4s-2.56 4 0 4ZM439.46 734.43c2.55 0 2.56-4 0-4s-2.56 4 0 4ZM428.9 952.05a1.999 1.999 0 1 0 0-4c-2.55 0-2.56 4 0 4Z" fill="#fff"/><path d="M1084.25 384.04c-3.18 8.56 1.73 19.24 10.29 22.39-2.79 10.64 2.84 22.86 12.74 27.66" stroke="#272B36" stroke-width="2.23" stroke-miterlimit="10"/></svg>